<svg width="29" height="29" viewBox="0 0 29 29" fill="none" xmlns="http://www.w3.org/2000/svg">
<path d="M28.943 5.66347C27.8574 6.13424 26.7071 6.44454 25.5297 6.58567C26.7699 5.85197 27.6979 4.70164 28.1435 3.34734C26.9942 4.00757 25.7211 4.488 24.3648 4.75577C23.4707 3.81424 22.2855 3.18977 20.9931 2.97904C19.7007 2.7683 18.3744 2.98387 17.2202 3.5919C16.065 4.19994 15.1467 5.16564 14.6063 6.34014C14.066 7.51464 13.9355 8.83124 14.2342 10.086C9.2916 9.85687 4.91453 7.51947 1.98167 3.9892C1.44807 4.88144 1.17063 5.89837 1.17643 6.9327C1.17643 8.96657 2.22817 10.7539 3.82027 11.8047C2.8768 11.7747 1.95363 11.5244 1.1281 11.072V11.1435C1.1281 12.4949 1.60177 13.8047 2.4708 14.8516C3.33983 15.8976 4.5501 16.6168 5.8957 16.8845C5.02377 17.1146 4.11027 17.1494 3.22287 16.986C3.6047 18.1489 4.34613 19.1659 5.34373 19.8947C6.34133 20.6236 7.54483 21.0277 8.78603 21.0499C6.68257 22.6749 4.0861 23.5565 1.41327 23.5536C0.9425 23.5536 0.471733 23.5265 0 23.4743C2.726 25.1921 5.89473 26.1036 9.13113 26.1017C20.0699 26.1017 26.0449 17.1861 26.0449 9.46827C26.0449 9.21887 26.0449 8.96851 26.0265 8.71911C27.1933 7.89261 28.2006 6.86601 28.999 5.68861L28.942 5.66444L28.943 5.66347Z" fill="black"/>
</svg>
